# xmcd
#
# Track frame offsets: 
#        150
#        49947
#        76494
#        143101
#        193162
#        223510
#        249145
#
# Disc length: 3919 seconds
#
# Revision: 1
# Processed by: cddbd v1.5.2PL0 Copyright (c) Steve Scherf et al.
# Submitted via: ExactAudioCopy v0.99pb5
#
DISCID=5f0f4d07
DTITLE=Babits Antal - Lorinszky Attila - Lament
DYEAR=2000
DGENRE=Jazz
TTITLE0=Lament - Homage to Bartok and Kodaly
TTITLE1=Banana Jazz
TTITLE2=The Cock Crows
TTITLE3=Meditation
TTITLE4=Chorale Improvisation For Albert Ayler
TTITLE5=Variation On Bartok
TTITLE6=Hiroshima
EXTD=YEAR: 2000
EXTT0=
EXTT1=
EXTT2=
EXTT3=
EXTT4=
EXTT5=
EXTT6=
PLAYORDER=
